<?xml version="1.0" standalone="no"?>
<!DOCTYPE svg PUBLIC "-//W3C//DTD SVG 1.1//EN" "http://www.w3.org/Graphics/SVG/1.1/DTD/svg11.dtd" >
<svg xmlns="http://www.w3.org/2000/svg" xmlns:xlink="http://www.w3.org/1999/xlink" version="1.1">
<metadata>
Created by FontForge 20161003 at Wed Dec 14 04:23:47 2016
 By www-data
(c)2016 Missy Meyer
</metadata>
<defs>
<font id="KingBasilLite-Regular" horiz-adv-x="605" >
  <font-face 
    font-family="King Basil Lite"
    font-weight="400"
    font-stretch="normal"
    units-per-em="1000"
    panose-1="0 0 5 4 0 0 0 0 0 4"
    ascent="550"
    descent="-450"
    x-height="416"
    cap-height="897"
    bbox="-216.16 -464.002 897.432 973.335"
    underline-thickness="53"
    underline-position="-108"
    unicode-range="U+0020-201D"
  />
<missing-glyph 
d="M50 -120h500v840h-500v-840zM100 -70v740h400v-740h-400z" />
    <glyph glyph-name=".notdef" 
d="M50 -120h500v840h-500v-840zM100 -70v740h400v-740h-400z" />
    <glyph glyph-name="controlGS" horiz-adv-x="0" 
 />
    <glyph glyph-name="controlCR" horiz-adv-x="293" 
 />
    <glyph glyph-name="space" unicode=" " horiz-adv-x="293" 
 />
    <glyph glyph-name="a" unicode="a" horiz-adv-x="484" 
d="M233 310l25 12c7 34 -33 220 -166 160c-109 -49 -191 -432 -58 -453c18 -10 82 -14 144 60c10 -22 17 -165 119 -120c27 27 136 40 216 357c0 0 6 20 -9 28c-9 13 -22 -3 -22 -3c-42 -179 -121 -302 -178 -336c-12 -7 -48 -19 -25 160c10 30 -8 58 -36 79
c-18 18 -45 7 -61 -77c-8 -44 -54 -104 -88 -106c-29 2 -20 265 88 372c0 0 42 31 51 -133z" />
    <glyph glyph-name="b" unicode="b" horiz-adv-x="550" 
d="M129 183c0 0 230 210 294 548c19 144 -37 192 -139 191c-65 -18 -149 -22 -237 -302c-26 -87 -96 -436 -33 -691c11 -22 32 -46 86 -19c0 -20 0 -27 8 -35c50 -54 280 21 285 229c29 8 147 47 178 219c0 0 5 16 -6 26l-16 2c-52 -193 -144 -215 -159 -219
c2 92 -70 128 -127 126c-28 -1 -52 -14 -134 -75zM100 208c5 51 12 319 98 534c26 74 105 210 170 112c107 -170 -173 -576 -268 -646zM104 -79c-9 75 -12 185 34 235c29 31 55 51 99 63c38 10 56 -69 47 -123c-162 -55 -180 -175 -180 -175zM125 -106
c-20 27 106 169 156 166c-25 -133 -107 -193 -156 -166z" />
    <glyph glyph-name="c" unicode="c" horiz-adv-x="457" 
d="M454 349c0 0 -76 -253 -244 -263c-114 -7 -95 388 10 395c10 -10 54 -8 16 -133c8 0 20 -20 33 4c21 41 42 111 -21 147c-41 23 -252 111 -255 -254c-1 -122 108 -248 208 -217c95 30 228 110 277 295c0 0 4 17 -5 23c-7 6 -19 3 -19 3z" />
    <glyph glyph-name="d" unicode="d" horiz-adv-x="583" 
d="M412 -115c-39 -18 -71 90 -66 399c43 82 79 137 150 403c33 128 23 371 -128 225c-23 -30 -132 -88 -144 -500c-69 19 -138 30 -200 -17c-61 -46 -79 -338 22 -401c15 -12 122 -69 189 89c14 -46 8 -198 81 -244c101 -53 175 -16 293 486c0 0 0 24 -9 29
c-2 4 -18 1 -18 1c-77 -326 -144 -458 -170 -470zM335 341c-2 18 0 354 83 559c11 21 80 28 33 -208c-70 -270 -116 -351 -116 -351zM134 28c-72 8 -117 380 89 342c0 -37 9 -159 6 -234c-1 -22 -49 -113 -95 -108z" />
    <glyph glyph-name="e" unicode="e" horiz-adv-x="417" 
d="M13 104c40 -76 323 -161 424 221c0 0 2 15 -3 22c-3 5 -19 2 -19 2c-82 -255 -192 -270 -216 -260c-24 15 -78 4 -82 163c41 -7 155 39 152 164c-8 75 -74 71 -111 73c-185 0 -195 -269 -145 -385zM114 289c10 82 22 120 52 157c17 12 55 11 58 -47
c-12 -95 -61 -106 -110 -110z" />
    <glyph glyph-name="f" unicode="f" horiz-adv-x="413" 
d="M218 158c-26 77 -80 74 -114 66c81 73 205 233 231 551c12 140 -100 215 -154 130c-18 -29 -169 -160 -194 -717c-4 -112 45 -425 185 -407c29 4 130 48 66 345c55 24 130 36 193 198c0 0 -2 14 -6 22c-2 4 -18 7 -18 7c-52 -146 -119 -179 -189 -195zM105 279
c39 394 88 514 114 594c11 34 87 33 83 -70c-12 -383 -197 -524 -197 -524zM111 143c30 -38 71 -35 86 -30c36 -131 22 -296 -24 -294c-32 3 -78 235 -62 324zM190 147c-28 2 -75 -9 -70 43c39 29 63 -17 70 -43z" />
    <glyph glyph-name="g" unicode="g" horiz-adv-x="500" 
d="M200 167c-198 -24 -104 383 15 385c44 -5 91 -17 76 -140c13 -16 30 -11 29 -1c58 135 -102 239 -235 149c-62 -44 -160 -155 -106 -347c20 -61 70 -107 213 -85c0 -21 -3 -56 -8 -74c-163 -104 -280 -367 -159 -476c18 -14 192 -86 228 133s30 283 47 361
c20 24 164 35 224 251c0 0 5 17 -4 24c-7 5 -20 2 -20 2c-50 -177 -187 -228 -195 -229c-2 18 4 60 6 89c13 50 -17 73 -50 100c-20 16 -33 15 -41 -8s0 -32 -20 -134zM178 -3c-5 -31 1 -315 -69 -390c-13 -16 -68 -5 -86 42c-34 171 155 348 155 348z" />
    <glyph glyph-name="h" unicode="h" horiz-adv-x="551" 
d="M110 120c-1 45 4 192 9 231c50 70 225 114 245 387c14 152 -93 323 -205 184c-19 -25 -66 -66 -123 -287c-13 -75 -57 -162 -23 -624c1 -39 42 -51 69 -67c25 -12 46 20 37 75c-1 96 69 222 117 246c5 12 31 8 27 -72c-15 -102 -50 -366 23 -404c14 -5 230 -137 291 533
c0 0 -2 13 -7 22c-2 5 -21 7 -21 7c-59 -632 -231 -577 -208 -433c-5 99 49 201 13 337c-11 41 -138 166 -244 -135zM120 398c10 33 10 317 109 501c12 20 107 61 99 -163c-16 -242 -174 -277 -208 -338z" />
    <glyph glyph-name="i" unicode="i" horiz-adv-x="327" 
d="M324 357c-70 -479 -238 -447 -232 -321c5 105 11 202 28 301c6 23 -4 59 -51 89c-21 13 -55 -5 -62 -33c-6 -23 -65 -448 48 -482c139 -36 252 90 293 418c0 0 -1 19 -6 26c-2 3 -18 2 -18 2zM149 559c-4 30 -64 46 -87 50c0 0 -41 -25 -6 -90c1 -10 73 -26 80 -17
c9 10 8 38 13 57z" />
    <glyph glyph-name="j" unicode="j" horiz-adv-x="290" 
d="M116 98c0 75 0 270 8 345c0 30 -36 53 -66 71c-30 22 -50 29 -58 -27c0 -126 1 -312 -7 -434c-12 -33 -254 -299 -159 -479c17 -26 133 -101 215 77c26 65 66 135 68 403c56 46 133 103 195 268c0 0 1 13 -3 21c-2 4 -20 8 -20 8c-79 -177 -115 -199 -173 -253zM-6 -6
c0 -44 -10 -491 -106 -413c-128 104 106 413 106 413zM99 593c0 0 34 81 13 105c-10 0 -85 19 -93 11c-35 -61 8 -108 8 -108c56 -18 72 -8 72 -8z" />
    <glyph glyph-name="k" unicode="k" horiz-adv-x="507" 
d="M172 85c39 23 143 78 161 186c10 59 -37 150 -148 73c-17 -19 -66 -57 -89 -122c0 22 6 94 15 116c299 308 266 538 216 584c-28 26 -190 93 -253 -115c-32 -103 -82 -286 -89 -858c2 -43 120 -98 118 -27c-1 27 -6 124 -7 151c0 0 89 -208 239 -206
c157 14 193 207 202 456c0 0 -5 21 -10 28c-3 4 -23 1 -23 1c-19 -318 -58 -404 -139 -441c-32 -13 -69 -8 -193 174zM113 393c21 227 52 345 63 382c16 53 72 170 118 128c32 -37 92 -208 -181 -510zM266 336c50 -79 -84 -149 -166 -182c16 56 107 203 166 182z" />
    <glyph glyph-name="l" unicode="l" horiz-adv-x="390" 
d="M180 -118c-62 10 -61 427 -59 479c146 140 262 470 177 571c-36 42 -189 77 -254 -188c-26 -93 -81 -477 -10 -783c16 -58 44 -84 77 -117c28 -27 222 -58 306 479c0 0 -1 16 -6 23c-2 4 -21 5 -21 5c-60 -357 -165 -468 -210 -469zM119 412c8 97 56 443 104 500
c16 36 73 27 62 -94c-26 -279 -166 -406 -166 -406z" />
    <glyph glyph-name="m" unicode="m" horiz-adv-x="817" 
d="M577 -109c-24 41 16 383 38 523c7 82 -89 169 -139 120c-48 -56 -145 -275 -145 -283c-8 10 41 186 -59 235c-10 10 -35 13 -53 -5c-27 -30 -55 -61 -111 -172c0 8 10 104 18 148c8 22 4 50 -39 74c-30 22 -58 22 -68 -16c-27 -86 -36 -296 29 -359c18 -10 53 -4 64 67
c10 72 105 232 131 226c11 -10 -41 -216 -33 -298c0 -38 35 -70 65 -92c22 -18 36 -5 44 22c0 10 4 28 12 38c22 48 71 217 148 359c8 8 29 46 23 0c-10 -70 -100 -542 -1 -628c35 -24 226 -131 346 480c0 0 -3 14 -8 21c-3 5 -23 1 -23 1c-93 -457 -209 -481 -239 -461z
" />
    <glyph glyph-name="n" unicode="n" horiz-adv-x="592" 
d="M617 324c0 0 -1 12 -6 20c-1 2 -20 5 -20 5c-108 -471 -173 -433 -193 -411c-8 8 -39 82 -7 269c8 56 22 134 14 211c-11 65 -109 125 -155 79c-32 -32 -91 -97 -139 -237c0 18 7 101 15 139c8 44 -27 62 -65 84c-10 8 -41 -1 -41 -19c-22 -93 -35 -212 -13 -308
c8 -27 14 -74 91 -62c15 3 34 15 16 81c10 18 78 226 161 299c55 38 -8 -181 -8 -237c-8 -70 -1 -283 74 -359c26 -42 174 -94 276 446z" />
    <glyph glyph-name="o" unicode="o" horiz-adv-x="482" 
d="M315 271c29 84 12 133 -6 190c-30 86 -117 104 -161 82c-16 -8 -63 -25 -57 -96c-66 12 -113 -107 -102 -236c5 -56 35 -176 125 -170c71 9 146 32 190 194c13 -2 148 -32 203 93c0 0 8 18 -5 26c-18 11 -22 -5 -22 -5c-33 -95 -141 -94 -165 -78zM101 430
c46 -101 134 -179 174 -186c-32 -84 -69 -137 -106 -143c-64 17 -54 213 -46 256c4 12 -22 65 -22 73zM286 289c-60 28 -131 120 -131 181c6 78 70 53 95 20c18 -27 60 -79 36 -201z" />
    <glyph glyph-name="p" unicode="p" horiz-adv-x="559" 
d="M50 533c0 0 -45 51 -53 -231c-8 -79 -9 -381 -6 -601c2 -129 161 -227 223 18c22 104 -33 229 -96 280c0 0 1 13 3 29c35 -21 198 -32 285 170c32 14 99 24 171 125c0 0 11 15 2 26c-12 15 -24 -1 -24 -1c-79 -101 -110 -96 -140 -110c9 39 27 172 -77 240
c-90 49 -176 21 -219 -78c5 43 5 34 0 76c-9 31 -38 66 -69 57zM114 -39c0 -10 82 -105 68 -219c-12 -105 -61 -112 -61 -112c-26 15 -34 105 -7 331zM118 118c-1 22 9 172 8 202c6 72 35 97 66 125c83 54 120 6 119 -57c-1 -96 -12 -124 -34 -180
c-29 -12 -134 -35 -159 -90zM133 56c-5 70 57 87 127 110c-35 -91 -80 -107 -127 -110z" />
    <glyph glyph-name="q" unicode="q" horiz-adv-x="583" 
d="M179 148c-8 -10 -49 -251 -24 -426c7 -48 106 -267 219 -98c44 93 120 264 -45 452c48 7 192 45 276 247c0 0 7 18 -3 29c-10 7 -21 0 -21 0c-81 -201 -254 -244 -281 -254c8 40 42 138 68 237c17 55 -27 72 -71 90c-10 10 -23 8 -33 -10c-18 -56 -60 -228 -102 -236
c-52 -4 -93 229 81 342c24 13 66 -22 56 -52c0 0 9 -24 28 -5c18 22 -20 114 -138 104s-261 -212 -154 -383c24 -39 84 -59 144 -37zM283 44c30 -8 88 -89 93 -117c32 -174 -5 -219 -23 -263c-8 -18 -60 -102 -86 -23c-8 30 -27 193 16 403z" />
    <glyph glyph-name="r" unicode="r" horiz-adv-x="501" 
d="M498 345c0 0 -70 -449 -181 -431c0 0 -53 5 -27 198c10 73 20 90 21 171c4 54 -48 72 -90 46c-32 -24 -139 -41 -161 20c26 57 83 128 28 174c-35 29 -91 10 -114 -55c-19 -70 5 -110 36 -168c31 -37 102 -65 181 -39c-16 -56 -69 -238 -3 -354c21 -37 89 -69 160 -32
c41 22 121 60 180 445c0 0 5 19 -7 26c-16 11 -23 -1 -23 -1zM31 380c-19 26 -26 69 -8 106c29 34 44 1 44 1c8 -29 -9 -44 -36 -107z" />
    <glyph glyph-name="s" unicode="s" horiz-adv-x="423" 
d="M22 268c15 -33 66 -125 85 -176c-248 -177 -81 -270 -7 -280c42 -6 204 1 185 165c-5 85 -34 126 -42 146c36 30 138 78 203 205c0 0 10 16 -3 24s-23 -3 -23 -3c-81 -138 -186 -176 -197 -181c-9 15 -92 146 -115 204c86 148 25 263 -76 201c-52 -32 -104 -86 -10 -305z
M123 47c28 -68 106 -206 0 -198c-83 6 -199 90 0 198zM88 418c-12 29 -45 70 -24 118c12 9 34 32 44 -25c4 -41 3 -43 -20 -93z" />
    <glyph glyph-name="t" unicode="t" horiz-adv-x="434" 
d="M-96 612c0 0 -45 -38 15 -34c44 -2 60 -12 93 -24c-7 -84 -58 -384 35 -592c28 -60 301 -351 417 360c0 0 5 26 -12 32c-16 9 -20 -6 -20 -6c-76 -473 -217 -451 -260 -410c-38 45 -66 283 -35 557c32 -34 290 -19 347 88c0 0 13 49 -19 29c-77 -111 -259 -103 -316 -74
c15 24 164 305 110 394c-17 21 -23 23 -47 24c-150 9 -187 -334 -194 -357c-11 7 -44 25 -114 13zM224 913c58 -62 -91 -321 -84 -312c4 45 9 191 38 281c0 0 16 52 46 31z" />
    <glyph glyph-name="u" unicode="u" horiz-adv-x="569" 
d="M131 112c-8 4 -24 65 16 352c-1 18 -11 33 -22 50c-41 35 -87 30 -105 -20c-13 -60 -57 -321 15 -411c39 -44 154 -45 218 94c1 -8 -1 -213 108 -235c17 -3 162 -38 237 380c0 0 -1 14 -7 21c-4 5 -23 2 -23 2c-48 -292 -149 -411 -187 -347c-44 98 -18 266 -14 342
c-2 27 -52 70 -75 78c-19 7 -40 24 -44 -96c5 -66 -34 -210 -117 -210z" />
    <glyph glyph-name="v" unicode="v" horiz-adv-x="446" 
d="M177 18c-28 22 -49 193 -47 263c-7 57 -6 98 -65 126c-29 10 -70 7 -63 -23c-2 -95 -28 -475 176 -475c44 104 77 183 113 328c7 -8 136 -45 177 85c0 0 6 16 -4 25c-2 5 -19 4 -19 4c-54 -126 -131 -73 -139 -56c26 69 22 142 -59 141c-30 -5 -66 -100 11 -173
c-31 -128 -45 -162 -81 -245zM271 328c0 0 -40 63 -8 71c40 1 8 -71 8 -71z" />
    <glyph glyph-name="w" unicode="w" horiz-adv-x="671" 
d="M6 416c-18 -51 -6 -439 77 -458c22 -10 122 7 161 227c8 10 15 -142 33 -208c8 -38 52 -121 113 -84c18 30 62 26 114 272c70 -9 144 -17 193 160c0 0 2 25 -10 31c-11 12 -17 0 -17 0c-46 -162 -92 -175 -157 -150c3 14 35 149 -43 155c-93 7 -41 -165 -3 -185
c-9 -56 -31 -181 -74 -181c-21 18 -27 110 -27 158c-8 56 -50 82 -88 109c-10 10 -21 18 -39 0c-27 -30 -46 -209 -91 -226c-30 2 -15 218 -23 304c0 48 -71 84 -119 76zM480 217c-18 22 -29 80 -21 102c0 8 13 24 25 -5c6 -29 4 -53 -4 -97z" />
    <glyph glyph-name="x" unicode="x" horiz-adv-x="548" 
d="M200 171c-10 30 -65 233 -170 203c-27 -9 -51 -43 -22 -53c2 -5 46 -35 82 -233c-64 -122 -171 -293 -271 -322c-10 -10 8 -27 19 -27c78 -5 230 218 264 298c9 -49 59 -234 111 -281c47 -35 195 -19 364 569c0 0 7 18 -6 26c-7 4 -23 1 -23 1
c-103 -341 -192 -508 -233 -505c-42 3 -93 215 -101 267c22 45 97 172 188 285c8 10 0 59 -19 39c-21 -18 -140 -181 -183 -267z" />
    <glyph glyph-name="y" unicode="y" horiz-adv-x="547" 
d="M148 171c-35 13 -38 166 -17 293c8 30 -14 56 -41 66c-22 8 -47 -9 -55 -27c-18 -48 -68 -203 -9 -295c18 -30 130 -166 231 11c1 -22 0 -83 1 -120c-150 -140 -236 -353 -185 -483c24 -60 205 -120 284 80c12 30 36 142 31 423c48 24 159 110 190 210c0 0 11 23 -3 29
c-8 12 -25 0 -25 0c-41 -127 -132 -171 -164 -194c2 42 13 305 13 365c8 48 -55 86 -99 94c-27 -8 -23 -321 -41 -343c-54 -91 -78 -115 -111 -109zM259 48c-2 -60 47 -386 -65 -436c-56 -27 -91 -12 -99 44c-8 70 -15 216 164 392z" />
    <glyph glyph-name="z" unicode="z" horiz-adv-x="485" 
d="M279 97c33 29 129 71 224 225c0 0 15 21 2 31c-12 14 -25 -6 -25 -6c-81 -131 -181 -173 -237 -210c-25 17 -51 30 -73 25c8 8 96 51 132 160c18 56 -47 95 -93 95c-60 0 -203 -27 -218 -52c-1 -54 16 -64 46 -45c47 20 130 69 159 48c11 -23 -93 -158 -131 -206
c-22 -22 3 -37 11 -55c10 -18 23 -14 41 -4c8 8 50 25 89 -9c-115 -133 -209 -273 -218 -395c-4 -91 118 -229 280 -87c27 27 205 216 11 485zM226 62c58 -94 22 -514 -161 -448c-36 21 -123 98 161 448z" />
    <glyph glyph-name="A" unicode="A" horiz-adv-x="665" 
d="M313 138c0 -8 -51 -197 95 -235c55 -20 252 32 282 426c0 0 -8 49 -27 19c-48 -342 -187 -416 -229 -403s-6 154 41 432c11 44 -38 119 -70 127c-11 0 -16 -4 -25 -12c-11 -30 -124 -349 -165 -419c-30 -51 -119 -107 -146 -20c-11 75 79 555 228 704c9 8 75 34 100 -154
c13 -5 29 2 28 34c-2 51 -28 176 -161 168c-200 -27 -276 -483 -285 -591c-9 -75 -3 -273 143 -261c32 8 111 8 191 185z" />
    <glyph glyph-name="period" unicode="." horiz-adv-x="212" 
d="M68 -10c25 -5 81 17 93 29c8 19 8 56 -18 75c-33 26 -72 20 -91 -6c-9 -31 -17 -90 16 -98z" />
    <glyph glyph-name="B" unicode="B" horiz-adv-x="581" 
d="M120 437c8 25 51 125 43 150c-17 32 -47 51 -72 83c-8 8 -29 0 -34 -47c-46 -134 -63 -268 -63 -410c15 -14 17 -14 -8 -40c-71 -74 -32 -303 190 -307c245 18 312 177 274 332c-8 25 -16 48 -33 80c51 13 114 31 184 44c21 16 -4 30 -21 30c-39 -8 -204 -37 -204 -37
c-24 38 -93 60 -93 60c120 67 153 154 153 260c0 39 -67 337 -522 77c-39 -17 -2 -51 15 -32c37 41 383 217 422 -15c-3 -127 -114 -189 -231 -228zM377 179c-17 -106 -52 -249 -254 -256c-66 -3 -244 154 -34 262c16 24 226 72 272 89c18 -22 16 -95 16 -95zM91 236
c8 39 4 79 12 111c0 8 103 8 142 0c32 -8 64 -24 96 -41c-8 0 -163 -45 -250 -70z" />
    <glyph glyph-name="C" unicode="C" horiz-adv-x="534" 
d="M415 531c-4 -34 17 -29 34 -5c7 30 46 190 -59 218c-346 74 -596 -718 -198 -807c0 0 229 -44 357 388c12 31 -18 28 -18 28c-54 -131 -143 -360 -304 -363c-214 21 -64 733 149 725c51 -5 43 -150 39 -184z" />
    <glyph glyph-name="D" unicode="D" horiz-adv-x="785" 
d="M-53 708c0 0 1 -34 31 -15c76 44 169 86 261 70c105 -8 284 -188 257 -472c-111 -16 -310 -95 -326 -103c8 59 35 264 43 340c8 37 -75 99 -112 107c0 -16 -14 -178 -22 -270c-8 -68 -6 -127 9 -184c9 -31 42 -4 -24 -60c-16 -16 -146 -138 24 -201
c44 -24 400 -89 527 346c37 -1 156 21 182 57c14 19 6 44 -13 30c-41 -30 -123 -55 -160 -47c0 16 8 122 -8 174c-98 384 -481 377 -669 228zM490 253c-31 -298 -365 -407 -441 -239c-12 41 214 216 441 239z" />
    <glyph glyph-name="E" unicode="E" horiz-adv-x="564" 
d="M130 449c-72 330 356 481 261 224c-8 -7 0 -49 22 -25c44 37 91 301 -217 204c-259 -128 -207 -407 -117 -461c-95 -34 -162 -545 251 -427c21 8 230 77 263 354c5 34 -24 51 -28 32c-49 -257 -198 -321 -214 -329c-37 -19 -313 -21 -184 328c26 -2 265 33 184 152
c-75 106 -183 -15 -221 -52zM181 387c12 44 115 121 135 101c44 -71 -135 -101 -135 -101z" />
    <glyph glyph-name="F" unicode="F" horiz-adv-x="533" 
d="M-2 316c0 0 -17 -39 26 -22c30 20 120 23 176 -28c-11 -90 -22 -150 -33 -240c-17 -108 -126 -192 -110 -7c7 21 9 42 -16 26c-56 -48 5 -318 181 -140c34 42 70 86 103 323c45 -15 183 12 230 98c7 38 -19 32 -26 24c-50 -54 -143 -90 -198 -77c8 109 24 208 28 338
c26 11 140 80 98 189c-4 31 -179 173 -218 -152c-105 -18 -296 140 -448 20c-20 -36 7 -42 19 -25c151 94 324 -59 426 -35c-1 -57 -24 -261 -29 -301c-49 52 -171 44 -209 9zM357 655c-6 38 -2 147 29 157c27 8 96 -87 -29 -157z" />
    <glyph glyph-name="G" unicode="G" horiz-adv-x="610" 
d="M354 454c-21 -42 -53 -197 -70 -251c-28 -42 -201 -100 -169 89c26 177 75 388 198 453c71 35 84 -170 86 -195c0 0 23 -29 33 9s7 213 -106 243c-40 14 -302 25 -334 -470c-7 -109 89 -378 289 -177c-4 -40 -3 -48 -7 -88c0 0 -376 -293 -152 -455
c18 -7 182 -110 227 51c14 34 49 359 66 448c21 -12 144 38 215 212c8 17 -11 43 -20 27c-87 -158 -179 -193 -187 -193c0 8 59 198 17 226c-28 29 -52 49 -86 71zM273 15c-7 -86 -5 -490 -134 -369c-105 99 -34 206 134 369z" />
    <glyph glyph-name="H" unicode="H" horiz-adv-x="641" 
d="M-6 315c-10 -56 -28 -233 -11 -298c3 -28 92 -28 97 1c11 41 15 121 36 278c69 -54 164 -76 220 -77c7 1 -5 -127 -6 -189c1 -114 118 -216 200 -73c7 34 -11 27 -22 15c-97 -124 -67 170 -59 240c19 5 156 29 210 116c10 23 -7 32 -17 24c-67 -78 -160 -108 -189 -106
c15 140 25 229 39 376c14 133 -23 167 -83 160c-26 -62 -50 -324 -68 -534c-93 2 -181 68 -216 79c7 31 16 118 26 167c73 430 -106 405 -109 349c-1 -13 10 -88 -6 -180c-13 -140 -37 -304 -42 -348z" />
    <glyph glyph-name="I" unicode="I" horiz-adv-x="479" 
d="M153 157c-12 31 -233 288 -18 694c18 19 54 65 73 -17c3 -80 44 -341 -55 -677zM266 97c204 1 237 228 237 228c0 49 -27 26 -27 26c-43 -193 -151 -218 -198 -212c19 74 42 179 55 295c9 112 23 590 -197 463c-26 -24 -282 -438 8 -771c-5 -31 -52 -237 -122 -209
c-28 12 -36 114 -20 175c4 31 -34 34 -39 0c-3 -45 -53 -222 121 -235c13 2 103 -16 182 240z" />
    <glyph glyph-name="J" unicode="J" horiz-adv-x="490" 
d="M101 196c48 -14 20 29 20 29c-106 77 -230 418 -50 614c26 41 174 -7 140 -337c-8 -113 -28 -332 -43 -392c-104 -97 -363 -406 -187 -524c63 -46 271 -33 316 546c98 47 166 95 214 190c18 29 -6 56 -22 27c-23 -52 -106 -135 -190 -177c131 693 -140 773 -256 700
c-42 -32 -236 -396 58 -676zM166 52c-10 -48 -69 -546 -202 -417c-76 157 195 408 202 417z" />
    <glyph glyph-name="K" unicode="K" horiz-adv-x="643" 
d="M130 372c2 47 39 346 -42 417c-82 72 -119 52 -80 -125c37 -166 -45 -645 -50 -742c-3 -40 -5 -57 44 -76c33 -4 77 -9 81 24c10 57 26 301 29 346c34 -119 143 -320 271 -330c106 -8 255 140 288 434c4 36 -16 37 -29 28c-76 -371 -197 -373 -226 -369
c-70 10 -172 138 -254 339c77 39 229 145 397 499c12 29 -16 55 -33 21c-195 -357 -330 -470 -396 -466z" />
    <glyph glyph-name="L" unicode="L" horiz-adv-x="840" 
d="M225 780c44 -73 90 -138 211 -133c-29 -138 -70 -231 -106 -335c-272 161 -501 -221 -198 -366c56 -22 158 -27 276 210c47 -70 112 -184 278 -184c72 5 156 142 180 355c5 40 -26 39 -26 22c-17 -39 -34 -319 -171 -325c-69 0 -163 160 -214 218c41 119 120 383 122 418
c36 5 275 74 140 237c-34 44 -178 47 -266 -202c-110 -26 -176 66 -198 119s-55 2 -28 -34zM36 97c-35 73 53 324 275 160c-27 -94 -171 -377 -275 -160zM587 699c0 32 60 224 112 162c37 -44 11 -135 -112 -162z" />
    <glyph glyph-name="M" unicode="M" horiz-adv-x="875" 
d="M2 841c-5 -14 5 -72 2 -152c-5 -154 -8 -380 -5 -489c2 -77 37 -317 98 -156c7 30 27 90 27 191c16 51 121 398 164 397c20 -5 15 -437 8 -555c-2 -36 82 -163 105 -15c7 81 -12 286 42 425c7 23 84 196 111 194c43 -3 9 -212 9 -293c-7 -132 -55 -487 68 -528
s237 109 266 460c4 33 -21 42 -24 27c-24 -331 -202 -587 -209 -348c-2 81 -3 221 4 302c0 99 59 392 -98 432c-17 5 -87 0 -157 -219c0 16 5 120 -75 168c-108 64 -215 -299 -222 -329c-7 23 8 294 8 396c0 51 -53 128 -122 92z" />
    <glyph glyph-name="N" unicode="N" horiz-adv-x="678" 
d="M477 -114c0 0 -59 -66 -5 638c8 71 -57 244 -160 177c-66 -64 -180 -244 -188 -261c3 50 9 138 14 242c0 67 -61 158 -130 141c-9 -8 4 -62 -1 -155c-10 -184 -11 -474 -2 -618c6 -100 103 -295 111 114c8 46 33 305 227 498c28 26 0 -265 -8 -371
c-8 -117 -7 -228 10 -345c8 -46 85 -199 195 -65c123 161 162 413 164 445c2 28 -26 23 -26 23c-88 -406 -169 -429 -201 -463z" />
    <glyph glyph-name="O" unicode="O" horiz-adv-x="686" 
d="M552 325c34 225 -48 596 -282 463c-3 41 -84 56 -91 47c-36 -12 -175 -230 -181 -507c-3 -137 53 -526 341 -408c42 21 160 51 203 340c43 -3 95 11 161 58c22 19 -2 41 -20 30c-42 -20 -52 -36 -131 -23zM481 279c-8 -52 -45 -295 -179 -315c-32 -5 -161 -6 -174 217
c-9 136 32 352 70 397c75 -157 133 -246 283 -299zM492 587c15 -93 8 -163 -3 -249c-129 30 -252 222 -254 290c-2 59 149 314 257 -41z" />
    <glyph glyph-name="P" unicode="P" horiz-adv-x="522" 
d="M155 373c10 24 34 272 -18 354c-7 9 -70 -6 -79 -52c-45 -142 -37 -235 -50 -376c3 -3 -15 -382 2 -422c0 -50 81 -58 100 -49c15 7 43 511 43 511c290 -47 329 100 341 204c8 63 8 331 -433 293c-104 -9 -188 -66 -217 -100c-28 -31 1 -47 21 -33c75 54 81 67 188 86
c129 20 332 -34 323 -217c-9 -148 -45 -241 -221 -199z" />
    <glyph glyph-name="Q" unicode="Q" horiz-adv-x="811" 
d="M842 325c0 0 -9 65 -30 26c-41 -244 -162 -414 -260 -185c13 42 150 394 -66 592c-56 48 -135 83 -218 56c-18 15 -73 67 -115 14c-42 -60 -75 -128 -102 -194c-39 -103 -51 -205 -53 -312c-2 -122 17 -236 114 -328c39 -40 186 -154 385 62c9 -16 37 -91 132 -87
c101 8 190 188 213 356zM511 219c-76 111 -168 91 -232 52c-45 -28 -13 -42 6 -31c43 4 105 42 183 -130c-44 -77 -103 -108 -171 -110c-8 0 -286 -23 -118 599c18 52 40 102 90 162c14 20 374 48 242 -542z" />
    <glyph glyph-name="R" unicode="R" horiz-adv-x="635" 
d="M249 335c106 2 200 106 210 196c7 59 14 346 -403 273c-96 -17 -171 -74 -198 -106c-26 -29 1 -45 20 -32c70 50 81 66 170 94c132 31 289 -38 301 -202c-13 -117 -79 -181 -206 -186c9 22 32 254 -16 330c-7 8 -66 -5 -74 -48c-32 -133 -25 -232 -37 -363
c3 -3 -24 -356 -8 -393c13 -127 57 -111 86 -30c12 33 48 473 48 473c98 -98 62 -454 307 -421c87 19 168 87 217 405c0 37 -24 40 -29 20c-9 -125 -103 -387 -207 -382c-144 7 -62 227 -181 372z" />
    <glyph glyph-name="S" unicode="S" horiz-adv-x="646" 
d="M489 308c-23 82 -106 264 -100 279c26 47 116 209 -8 253c-21 7 -188 16 -82 -337c8 -23 -234 -501 -383 -533c-21 -12 -6 -37 36 -18c162 72 302 391 359 490c4 -45 36 -114 47 -164c0 0 -357 -182 -195 -371c112 -107 417 -19 333 359c32 11 108 17 165 67
c12 13 -1 34 -18 23c-58 -36 -122 -33 -154 -48zM362 233c-2 -65 17 -120 2 -187c-16 -86 -145 -193 -189 -102c-84 160 187 289 187 289zM369 627c-15 53 -44 166 13 182c70 -39 -13 -182 -13 -182z" />
    <glyph glyph-name="T" unicode="T" 
d="M456 524c152 -26 257 239 62 279c-132 28 -152 -139 -169 -183c-86 49 -296 119 -437 -11c-19 -19 13 -34 18 -26c77 100 321 75 411 3c0 -50 -93 -629 -76 -680c54 -158 122 -134 122 -95c4 57 9 325 69 713zM460 568c5 50 17 208 88 176c62 -23 34 -197 -88 -176z" />
    <glyph glyph-name="U" unicode="U" horiz-adv-x="722" 
d="M384 178c0 0 -35 -343 102 -339c111 3 245 192 260 484c0 25 -10 41 -29 25c-26 -315 -177 -488 -223 -473c-33 19 33 600 44 727c0 37 -104 108 -115 71c-16 -105 -16 -365 -48 -434c-41 -116 -202 -339 -226 -254c-6 34 -56 149 17 617c24 99 -41 220 -117 190
c-7 -10 8 -109 -12 -219c-18 -103 -36 -218 -40 -280c-16 -92 -11 -521 229 -334c44 31 124 130 158 219z" />
    <glyph glyph-name="V" unicode="V" horiz-adv-x="549" 
d="M247 -66c0 0 -91 388 -113 599c-37 207 -220 323 -176 176c19 -64 31 -116 50 -219c39 -206 86 -473 126 -564c16 -30 134 -172 156 -32c7 23 82 311 312 903c0 31 -24 43 -37 29c-117 -288 -221 -492 -318 -892z" />
    <glyph glyph-name="W" unicode="W" horiz-adv-x="662" 
d="M178 80c-12 -17 -23 296 -31 415c-8 52 1 83 -35 177c-32 83 -144 112 -128 44c39 -128 42 -234 50 -335c8 -119 22 -243 38 -362c8 -52 83 -211 125 -100c18 49 18 91 28 136c27 101 100 286 100 286c26 4 -1 -293 99 -440c24 -24 92 -39 88 41s99 670 228 841
c13 31 -29 61 -45 31c-144 -191 -211 -721 -225 -728c-17 0 -3 232 -83 310c-24 16 -47 56 -74 21c-61 -108 -115 -308 -135 -337z" />
    <glyph glyph-name="X" unicode="X" horiz-adv-x="615" 
d="M403 -136c-26 1 -75 329 -91 427c38 34 218 308 261 388c28 40 -16 50 -33 19c0 0 -173 -264 -245 -357c-7 58 -42 388 -180 450c-43 30 -97 -13 -79 -31c31 -31 116 -274 152 -537c-26 -48 -177 -242 -257 -340c-23 -30 10 -57 29 -36c105 137 158 206 238 314
c23 -66 42 -284 159 -328c52 -17 182 -73 286 489c6 49 -30 36 -30 29c-7 -16 -80 -486 -210 -487z" />
    <glyph glyph-name="Y" unicode="Y" horiz-adv-x="565" 
d="M305 225c-7 -35 -7 -103 -20 -157c-63 -71 -271 -256 -172 -376c30 -41 301 -158 313 181c7 120 12 181 9 219c45 32 119 128 151 232c7 17 -11 51 -25 25c-54 -123 -123 -201 -123 -201c3 37 16 346 2 483c-4 61 -63 79 -98 79c-7 -95 -28 -349 -35 -412
c-104 -244 -183 -201 -192 -175c-19 54 -7 240 30 429c15 78 23 310 -127 269c2 -19 28 -100 4 -239c-22 -98 -77 -350 45 -484c17 -22 110 -134 238 127zM287 9c4 -130 -5 -388 -140 -306c-97 101 111 275 140 306z" />
    <glyph glyph-name="Z" unicode="Z" horiz-adv-x="610" 
d="M361 373l8 6c146 89 162 331 -77 395c-104 28 -309 -114 -108 -228c41 -14 46 29 20 33c-116 44 -59 175 76 135c136 -55 65 -262 -7 -282c-18 23 -173 69 -182 -35c-4 -41 28 -155 216 -50c18 -24 46 -84 52 -131c-82 -61 -471 -291 -317 -463c42 -53 437 -174 440 339
c0 47 -13 101 -27 135c67 31 135 48 173 98c10 14 9 43 -19 25c-44 -46 -114 -56 -171 -89c-21 29 -46 85 -77 112zM368 179c-9 -540 -266 -441 -287 -408c-49 69 -97 120 287 408zM246 399c-44 -33 -113 -67 -124 -15c1 72 103 37 124 15z" />
    <glyph glyph-name="zero" unicode="0" horiz-adv-x="643" 
d="M339 672c-20 1 -46 -37 -15 -44c213 13 277 -507 20 -587c-179 -52 -287 472 -8 648c7 6 73 79 -2 84c-18 1 -184 -45 -246 -176c-78 -164 -106 -630 219 -623c105 2 288 99 260 465c-31 146 -111 228 -228 233z" />
    <glyph glyph-name="one" unicode="1" horiz-adv-x="270" 
d="M37 677c7 -28 33 -21 33 -28c-7 -60 -41 -439 -30 -574c0 -35 47 -182 110 -112c34 73 43 487 43 552c7 49 24 204 -71 265c-11 11 -68 -16 -85 -103z" />
    <glyph glyph-name="two" unicode="2" horiz-adv-x="543" 
d="M79 591c15 -26 55 -15 45 16c-29 85 158 184 192 83c24 -72 -265 -540 -279 -658c-5 -27 18 -101 67 -95c50 31 146 41 212 9c59 -6 78 -4 129 20c26 10 21 59 -10 47c-32 -15 -100 -4 -139 5c-74 26 -106 24 -137 16c-11 9 151 323 240 471c27 56 50 149 -16 229
c-83 100 -344 37 -304 -143z" />
    <glyph glyph-name="three" unicode="3" horiz-adv-x="495" 
d="M127 205c26 21 -14 48 -32 37c-73 -44 -78 -108 -50 -165s187 -162 308 -64c46 38 222 303 -59 416c18 18 232 134 91 338c-70 100 -348 71 -313 -103c0 -18 50 -23 41 5c-23 62 146 160 198 66c43 -95 -49 -174 -127 -235c-24 -18 -113 -57 25 -102
c31 -8 207 -198 17 -330c-88 -54 -202 59 -99 137z" />
    <glyph glyph-name="four" unicode="4" horiz-adv-x="490" 
d="M386 390c0 38 -4 76 -4 121s-4 96 -57 129c-26 12 -32 12 -40 -14s-27 -174 -33 -233c-45 -6 -83 -6 -140 10c-31 15 85 240 127 347c12 26 -3 59 -41 71c-33 12 -47 -7 -59 -33c-45 -91 -162 -296 -124 -360c26 -38 21 -83 116 -88c26 0 71 -5 112 -8
c0 -26 -11 -351 18 -375c18 -15 22 -38 50 -41c37 0 45 23 45 49c8 105 15 266 23 371c28 0 25 -3 46 -2c21 3 31 54 4 54c-8 0 -35 2 -43 2z" />
    <glyph glyph-name="five" unicode="5" horiz-adv-x="530" 
d="M376 772c26 -26 6 -45 4 -56c-5 -30 34 -30 46 -8c49 102 -24 116 -42 108c-31 0 -232 -8 -300 -44c-46 -45 -46 -109 -53 -181c-6 -57 -25 -223 138 -163c51 8 148 29 177 -33c30 -91 -26 -339 -202 -358c-43 -8 -81 56 -47 145c10 23 -26 36 -41 7
c-11 -36 -85 -219 202 -210c67 2 280 124 189 374c-25 68 -85 163 -321 103c11 56 21 102 32 153c11 43 42 94 -34 127c51 21 160 34 252 36z" />
    <glyph glyph-name="six" unicode="6" horiz-adv-x="509" 
d="M160 304c0 8 147 292 163 426c0 32 -13 59 -45 71c-25 12 -40 -7 -48 -26c-37 -63 -189 -251 -214 -565c-11 -106 10 -312 258 -250c245 66 290 522 -114 344zM408 180c-5 -53 -65 -206 -240 -168c-36 13 -65 142 -15 225c274 152 255 -57 255 -57z" />
    <glyph glyph-name="seven" unicode="7" horiz-adv-x="486" 
d="M342 725c18 -14 -127 -165 -218 -629c-8 -43 -10 -61 -10 -112c0 -18 93 -116 106 -36c37 172 192 617 210 685c18 88 -11 137 -91 149c-68 8 -230 9 -284 -11c-23 -11 -27 -56 -1 -58c32 -2 85 25 288 12z" />
    <glyph glyph-name="eight" unicode="8" horiz-adv-x="571" 
d="M200 427c-199 -32 -260 -487 59 -485c65 -2 258 36 258 251c2 59 -36 193 -139 226c52 38 113 90 105 194c-11 102 -100 188 -198 158c9 8 12 38 -7 38c-173 5 -298 -340 -78 -382zM447 193c0 -47 -35 -173 -183 -196c-67 -10 -223 301 15 403c94 -5 168 -71 168 -207z
M283 735c85 42 150 -83 145 -153c-7 -99 -139 -178 -174 -133s-104 169 29 286z" />
    <glyph glyph-name="nine" unicode="9" horiz-adv-x="522" 
d="M296 401c18 25 8 61 -25 44c-31 -20 -180 -44 -190 69c-11 130 84 240 172 255c84 10 183 -170 47 -488c-41 -94 -72 -151 -121 -236c-16 -27 -33 -51 -22 -87c19 -6 73 -57 120 4c33 47 129 127 205 473c25 101 24 403 -236 382c-121 -10 -230 -161 -221 -300
c5 -79 65 -207 271 -116z" />
    <glyph glyph-name="question" unicode="?" horiz-adv-x="503" 
d="M104 656c-33 54 28 182 214 120c42 -18 47 -130 -32 -190c-88 -62 -267 -216 -184 -386c19 -33 37 -55 75 -55c19 0 36 9 18 81c-15 34 52 120 187 262c38 53 147 183 21 319c-109 96 -413 47 -356 -162c15 -51 70 -13 57 11zM167 -61c38 -3 68 19 78 65
c9 43 -39 33 -65 45c-53 19 -60 -24 -63 -66c0 -29 15 -36 50 -44z" />
    <glyph glyph-name="exclam" unicode="!" horiz-adv-x="482" 
d="M107 322c0 -45 5 -97 5 -142c12 -53 122 -107 131 -25c0 12 -9 235 89 601c12 38 -1 73 -34 92c-53 33 -77 40 -96 -25c-8 -26 -95 -355 -95 -501zM250 -34c0 33 -34 63 -67 75c-67 25 -87 -98 -54 -110c19 -12 62 -23 88 -23c29 13 25 50 33 58z" />
    <glyph glyph-name="ampersand" unicode="&#x26;" horiz-adv-x="747" 
d="M325 510c-58 -54 -114 -36 -161 -23c-28 18 -104 212 118 364c16 12 140 -24 43 -148c-12 -23 18 -52 35 -25c56 74 95 226 -105 226c-93 4 -359 -168 -181 -413c13 -18 36 -37 50 -55c-116 -110 -123 -297 -32 -415c53 -74 367 -163 451 269c23 -7 133 -24 171 74
c13 33 -16 52 -29 31c-44 -99 -107 -34 -140 -11c-17 12 -147 46 -240 -58c-16 -17 1 -53 29 -30c32 21 100 82 161 16c-18 -81 -53 -291 -263 -307c-45 -2 -172 204 99 445c10 20 21 51 -6 60z" />
    <glyph glyph-name="asterisk" unicode="*" 
d="M260 518c-12 38 -22 119 -55 138c-26 19 -49 3 -79 -12c14 -65 34 -80 53 -139c-58 13 -104 7 -104 -19c3 -32 82 -15 120 -27c-33 -33 -102 -61 -88 -83c25 -41 73 41 106 53c10 -27 28 -110 84 -85c19 8 33 43 25 62s-28 40 -36 59c38 0 123 -15 156 -15
c26 -8 44 21 16 36c-91 14 -102 8 -167 16c39 36 59 67 78 105c0 0 6 28 -17 15c-26 -26 -59 -71 -92 -104z" />
    <glyph glyph-name="parenleft" unicode="(" horiz-adv-x="280" 
d="M166 -62c13 -19 37 -16 23 20c-12 26 -134 401 0 823c8 19 1 65 -35 18c-33 -65 -297 -414 12 -861z" />
    <glyph glyph-name="parenright" unicode=")" horiz-adv-x="381" 
d="M61 -86c-12 -26 -3 -28 28 -16c99 39 500 537 -2 900c-12 8 -82 46 -19 -26c91 -98 289 -465 -7 -858z" />
    <glyph glyph-name="semicolon" unicode=";" horiz-adv-x="248" 
d="M71 354c25 -5 89 19 101 31c8 19 7 69 -19 88c-33 26 -80 18 -99 -8c-9 -31 -16 -103 17 -111zM78 -89c-25 -14 25 -41 46 -25c37 28 120 158 23 215c-52 18 -85 3 -96 -3c0 -21 -21 -80 0 -86c15 -6 49 -13 68 -9c-3 -41 -15 -61 -41 -92z" />
    <glyph glyph-name="colon" unicode=":" horiz-adv-x="241" 
d="M81 -8c25 -5 81 17 93 29c8 19 12 72 -14 91c-33 26 -82 16 -101 -10c-9 -31 -11 -102 22 -110zM182 393c4 25 -20 81 -33 92c-19 7 -68 1 -86 -26c-24 -34 -17 -72 10 -90c31 -8 103 -9 109 24z" />
    <glyph glyph-name="comma" unicode="," horiz-adv-x="210" 
d="M58 -89c-25 -14 25 -41 46 -25c37 28 101 114 21 223c-42 27 -83 -5 -94 -11c0 -21 -21 -80 0 -86c15 -6 49 -18 68 -14c-3 -41 -15 -56 -41 -87z" />
    <glyph glyph-name="hyphen" unicode="-" horiz-adv-x="483" 
d="M60 291c7 -26 -18 -51 113 -43c65 4 126 0 191 0c29 2 107 62 0 62c-65 0 -248 13 -304 -19z" />
    <glyph glyph-name="quoteright" unicode="'" horiz-adv-x="237" 
d="M89 492c31 -6 45 20 49 34c11 26 23 107 39 184c6 6 -81 61 -97 -19c-10 -102 -2 -195 9 -199z" />
    <glyph glyph-name="quotedbl" unicode="&#x22;" horiz-adv-x="375" 
d="M79 493c31 -6 45 20 49 34c11 26 23 107 39 184c6 6 -81 61 -97 -19c-10 -102 -2 -195 9 -199zM227 483c31 -6 45 20 49 34c11 26 23 107 39 184c6 6 -81 61 -97 -19c-10 -102 -2 -195 9 -199z" />
    <glyph glyph-name="quotedblright" unicode="&#x201d;" horiz-adv-x="419" 
d="M250 504c-5 -16 31 -34 52 -18c37 28 106 150 57 215c-54 33 -110 7 -121 -11c-10 -37 -21 -80 0 -86c15 -6 47 -9 64 5c-3 -41 -36 -78 -52 -105zM47 516c-25 -14 25 -41 46 -25c37 28 101 192 42 218c-88 25 -104 0 -115 -6c0 -21 -21 -80 0 -86c15 -6 34 -14 53 -10
c-3 -41 0 -60 -26 -91z" />
    <glyph glyph-name="quotedblleft" unicode="&#x201c;" horiz-adv-x="462" 
d="M174 698c5 16 -31 34 -52 18c-37 -28 -106 -150 -57 -215c54 -33 110 -7 121 11c10 37 21 80 0 86c-15 6 -47 9 -64 -5c3 41 36 78 52 105zM377 686c25 14 -25 41 -46 25c-37 -28 -101 -192 -42 -218c88 -25 104 0 115 6c0 21 21 80 0 86c-15 6 -34 14 -53 10
c3 41 0 60 26 91z" />
    <glyph glyph-name="quoteleft" unicode="&#x2018;" horiz-adv-x="235" 
d="M174 698c5 16 -31 34 -52 18c-37 -28 -106 -150 -57 -215c54 -33 110 -7 121 11c10 37 21 80 0 86c-15 6 -47 9 -64 -5c3 41 36 78 52 105z" />
    <glyph glyph-name="quoteright" unicode="&#x2019;" horiz-adv-x="223" 
d="M50 504c-5 -16 31 -34 52 -18c37 28 106 150 57 215c-54 33 -110 7 -121 -11c-10 -37 -21 -80 0 -86c15 -6 47 -9 64 5c-3 -41 -36 -78 -52 -105z" />
    </font>
</defs>
</svg>
